<mxfile host="app.diagrams.net" modified="2022-05-12T09:18:28.881Z" agent="5.0 (Macintosh; Intel Mac OS X 10_15_7) AppleWebKit/537.36 (KHTML, like Gecko) Chrome/101.0.4951.54 Safari/537.36" etag="iSGfkc7-sfsRtwb53wKo" version="18.0.2" type="github">
  <diagram id="2i5ipY-8kwWdGkH4rtEa" name="Page-1">
    <mxGraphModel dx="1198" dy="818" grid="1" gridSize="10" guides="1" tooltips="1" connect="1" arrows="1" fold="1" page="1" pageScale="1" pageWidth="827" pageHeight="1169" math="0" shadow="0">
      <root>
        <mxCell id="0" />
        <mxCell id="1" parent="0" />
        <mxCell id="oqh5uJ67etvfVnNtxnd--1" value="start" style="ellipse;whiteSpace=wrap;html=1;" vertex="1" parent="1">
          <mxGeometry x="330" y="40" width="120" height="40" as="geometry" />
        </mxCell>
        <mxCell id="oqh5uJ67etvfVnNtxnd--2" value="" style="endArrow=classic;html=1;rounded=0;exitX=0.5;exitY=1;exitDx=0;exitDy=0;" edge="1" parent="1" source="oqh5uJ67etvfVnNtxnd--1">
          <mxGeometry width="50" height="50" relative="1" as="geometry">
            <mxPoint x="410" y="290" as="sourcePoint" />
            <mxPoint x="390" y="120" as="targetPoint" />
          </mxGeometry>
        </mxCell>
        <mxCell id="oqh5uJ67etvfVnNtxnd--8" value="" style="edgeStyle=orthogonalEdgeStyle;rounded=0;orthogonalLoop=1;jettySize=auto;html=1;" edge="1" parent="1" source="oqh5uJ67etvfVnNtxnd--5" target="oqh5uJ67etvfVnNtxnd--6">
          <mxGeometry relative="1" as="geometry" />
        </mxCell>
        <mxCell id="oqh5uJ67etvfVnNtxnd--5" value="Add Fund" style="rounded=0;whiteSpace=wrap;html=1;" vertex="1" parent="1">
          <mxGeometry x="330" y="120" width="120" height="40" as="geometry" />
        </mxCell>
        <mxCell id="oqh5uJ67etvfVnNtxnd--12" value="" style="edgeStyle=orthogonalEdgeStyle;rounded=0;orthogonalLoop=1;jettySize=auto;html=1;" edge="1" parent="1" source="oqh5uJ67etvfVnNtxnd--6" target="oqh5uJ67etvfVnNtxnd--11">
          <mxGeometry relative="1" as="geometry" />
        </mxCell>
        <mxCell id="oqh5uJ67etvfVnNtxnd--39" value="" style="edgeStyle=orthogonalEdgeStyle;rounded=0;orthogonalLoop=1;jettySize=auto;html=1;" edge="1" parent="1" source="oqh5uJ67etvfVnNtxnd--6" target="oqh5uJ67etvfVnNtxnd--38">
          <mxGeometry relative="1" as="geometry" />
        </mxCell>
        <mxCell id="oqh5uJ67etvfVnNtxnd--6" value="is option my wallet ?" style="rhombus;whiteSpace=wrap;html=1;" vertex="1" parent="1">
          <mxGeometry x="330" y="190" width="120" height="100" as="geometry" />
        </mxCell>
        <mxCell id="oqh5uJ67etvfVnNtxnd--14" value="" style="edgeStyle=orthogonalEdgeStyle;rounded=0;orthogonalLoop=1;jettySize=auto;html=1;" edge="1" parent="1" source="oqh5uJ67etvfVnNtxnd--11" target="oqh5uJ67etvfVnNtxnd--13">
          <mxGeometry relative="1" as="geometry" />
        </mxCell>
        <mxCell id="oqh5uJ67etvfVnNtxnd--11" value="Enter amount" style="whiteSpace=wrap;html=1;" vertex="1" parent="1">
          <mxGeometry x="150" y="300" width="120" height="60" as="geometry" />
        </mxCell>
        <mxCell id="oqh5uJ67etvfVnNtxnd--20" value="" style="edgeStyle=orthogonalEdgeStyle;rounded=0;orthogonalLoop=1;jettySize=auto;html=1;" edge="1" parent="1" source="oqh5uJ67etvfVnNtxnd--13" target="oqh5uJ67etvfVnNtxnd--19">
          <mxGeometry relative="1" as="geometry" />
        </mxCell>
        <mxCell id="oqh5uJ67etvfVnNtxnd--13" value="process payment with external payment service" style="whiteSpace=wrap;html=1;" vertex="1" parent="1">
          <mxGeometry x="150" y="400" width="120" height="60" as="geometry" />
        </mxCell>
        <mxCell id="oqh5uJ67etvfVnNtxnd--22" value="" style="edgeStyle=orthogonalEdgeStyle;rounded=0;orthogonalLoop=1;jettySize=auto;html=1;" edge="1" parent="1" source="oqh5uJ67etvfVnNtxnd--19" target="oqh5uJ67etvfVnNtxnd--21">
          <mxGeometry relative="1" as="geometry" />
        </mxCell>
        <mxCell id="oqh5uJ67etvfVnNtxnd--28" value="" style="edgeStyle=orthogonalEdgeStyle;rounded=0;orthogonalLoop=1;jettySize=auto;html=1;" edge="1" parent="1" source="oqh5uJ67etvfVnNtxnd--19" target="oqh5uJ67etvfVnNtxnd--27">
          <mxGeometry relative="1" as="geometry" />
        </mxCell>
        <mxCell id="oqh5uJ67etvfVnNtxnd--19" value="is trx successful ?" style="rhombus;whiteSpace=wrap;html=1;" vertex="1" parent="1">
          <mxGeometry x="150" y="504.5" width="120" height="80" as="geometry" />
        </mxCell>
        <mxCell id="oqh5uJ67etvfVnNtxnd--21" value="Do you want to retry ?" style="rhombus;whiteSpace=wrap;html=1;" vertex="1" parent="1">
          <mxGeometry x="20" y="490" width="100" height="110" as="geometry" />
        </mxCell>
        <mxCell id="oqh5uJ67etvfVnNtxnd--23" value="No" style="text;html=1;align=center;verticalAlign=middle;resizable=0;points=[];autosize=1;strokeColor=none;fillColor=none;" vertex="1" parent="1">
          <mxGeometry x="115" y="510" width="30" height="20" as="geometry" />
        </mxCell>
        <mxCell id="oqh5uJ67etvfVnNtxnd--24" value="" style="endArrow=classic;html=1;rounded=0;exitX=0.5;exitY=0;exitDx=0;exitDy=0;" edge="1" parent="1" source="oqh5uJ67etvfVnNtxnd--21">
          <mxGeometry width="50" height="50" relative="1" as="geometry">
            <mxPoint x="400" y="440" as="sourcePoint" />
            <mxPoint x="70" y="240" as="targetPoint" />
          </mxGeometry>
        </mxCell>
        <mxCell id="oqh5uJ67etvfVnNtxnd--25" value="" style="endArrow=classic;html=1;rounded=0;" edge="1" parent="1">
          <mxGeometry width="50" height="50" relative="1" as="geometry">
            <mxPoint x="70" y="240" as="sourcePoint" />
            <mxPoint x="210" y="240" as="targetPoint" />
          </mxGeometry>
        </mxCell>
        <mxCell id="oqh5uJ67etvfVnNtxnd--26" value="Yes" style="text;html=1;align=center;verticalAlign=middle;resizable=0;points=[];autosize=1;strokeColor=none;fillColor=none;" vertex="1" parent="1">
          <mxGeometry x="60" y="460" width="40" height="20" as="geometry" />
        </mxCell>
        <mxCell id="oqh5uJ67etvfVnNtxnd--32" value="" style="edgeStyle=orthogonalEdgeStyle;rounded=0;orthogonalLoop=1;jettySize=auto;html=1;exitX=0.5;exitY=1;exitDx=0;exitDy=0;" edge="1" parent="1" source="oqh5uJ67etvfVnNtxnd--27" target="oqh5uJ67etvfVnNtxnd--31">
          <mxGeometry relative="1" as="geometry">
            <Array as="points">
              <mxPoint x="210" y="800" />
            </Array>
          </mxGeometry>
        </mxCell>
        <mxCell id="oqh5uJ67etvfVnNtxnd--27" value="credit my wallet" style="whiteSpace=wrap;html=1;" vertex="1" parent="1">
          <mxGeometry x="150" y="630" width="120" height="60" as="geometry" />
        </mxCell>
        <mxCell id="oqh5uJ67etvfVnNtxnd--31" value="stop" style="ellipse;whiteSpace=wrap;html=1;" vertex="1" parent="1">
          <mxGeometry x="330" y="780" width="120" height="40" as="geometry" />
        </mxCell>
        <mxCell id="oqh5uJ67etvfVnNtxnd--33" value="" style="endArrow=classic;html=1;rounded=0;exitX=0.5;exitY=1;exitDx=0;exitDy=0;" edge="1" parent="1" source="oqh5uJ67etvfVnNtxnd--21">
          <mxGeometry width="50" height="50" relative="1" as="geometry">
            <mxPoint x="400" y="520" as="sourcePoint" />
            <mxPoint x="70" y="800" as="targetPoint" />
          </mxGeometry>
        </mxCell>
        <mxCell id="oqh5uJ67etvfVnNtxnd--34" value="" style="endArrow=classic;html=1;rounded=0;" edge="1" parent="1">
          <mxGeometry width="50" height="50" relative="1" as="geometry">
            <mxPoint x="70" y="800" as="sourcePoint" />
            <mxPoint x="210" y="800" as="targetPoint" />
          </mxGeometry>
        </mxCell>
        <mxCell id="oqh5uJ67etvfVnNtxnd--36" value="No" style="text;html=1;align=center;verticalAlign=middle;resizable=0;points=[];autosize=1;strokeColor=none;fillColor=none;" vertex="1" parent="1">
          <mxGeometry x="75" y="620" width="30" height="20" as="geometry" />
        </mxCell>
        <mxCell id="oqh5uJ67etvfVnNtxnd--37" value="Yes" style="text;html=1;align=center;verticalAlign=middle;resizable=0;points=[];autosize=1;strokeColor=none;fillColor=none;" vertex="1" parent="1">
          <mxGeometry x="210" y="590" width="40" height="20" as="geometry" />
        </mxCell>
        <mxCell id="oqh5uJ67etvfVnNtxnd--43" value="" style="edgeStyle=orthogonalEdgeStyle;rounded=0;orthogonalLoop=1;jettySize=auto;html=1;" edge="1" parent="1" source="oqh5uJ67etvfVnNtxnd--38" target="oqh5uJ67etvfVnNtxnd--42">
          <mxGeometry relative="1" as="geometry" />
        </mxCell>
        <mxCell id="oqh5uJ67etvfVnNtxnd--38" value="Enter Other Tpay User wallet" style="whiteSpace=wrap;html=1;" vertex="1" parent="1">
          <mxGeometry x="530" y="300" width="120" height="60" as="geometry" />
        </mxCell>
        <mxCell id="oqh5uJ67etvfVnNtxnd--56" value="" style="edgeStyle=orthogonalEdgeStyle;rounded=0;orthogonalLoop=1;jettySize=auto;html=1;" edge="1" parent="1" source="oqh5uJ67etvfVnNtxnd--40" target="oqh5uJ67etvfVnNtxnd--55">
          <mxGeometry relative="1" as="geometry" />
        </mxCell>
        <mxCell id="oqh5uJ67etvfVnNtxnd--40" value="process payment with external payment service" style="whiteSpace=wrap;html=1;" vertex="1" parent="1">
          <mxGeometry x="530" y="410" width="120" height="60" as="geometry" />
        </mxCell>
        <mxCell id="oqh5uJ67etvfVnNtxnd--42" value="is details valid?" style="rhombus;whiteSpace=wrap;html=1;" vertex="1" parent="1">
          <mxGeometry x="700" y="290" width="80" height="80" as="geometry" />
        </mxCell>
        <mxCell id="oqh5uJ67etvfVnNtxnd--44" value="" style="endArrow=classic;html=1;rounded=0;exitX=0.5;exitY=0;exitDx=0;exitDy=0;" edge="1" parent="1" source="oqh5uJ67etvfVnNtxnd--42">
          <mxGeometry width="50" height="50" relative="1" as="geometry">
            <mxPoint x="400" y="490" as="sourcePoint" />
            <mxPoint x="740" y="240" as="targetPoint" />
          </mxGeometry>
        </mxCell>
        <mxCell id="oqh5uJ67etvfVnNtxnd--45" value="" style="endArrow=classic;html=1;rounded=0;" edge="1" parent="1">
          <mxGeometry width="50" height="50" relative="1" as="geometry">
            <mxPoint x="740" y="240" as="sourcePoint" />
            <mxPoint x="590" y="240" as="targetPoint" />
          </mxGeometry>
        </mxCell>
        <mxCell id="oqh5uJ67etvfVnNtxnd--46" value="No" style="text;html=1;align=center;verticalAlign=middle;resizable=0;points=[];autosize=1;strokeColor=none;fillColor=none;" vertex="1" parent="1">
          <mxGeometry x="735" y="270" width="30" height="20" as="geometry" />
        </mxCell>
        <mxCell id="oqh5uJ67etvfVnNtxnd--50" value="" style="endArrow=classic;html=1;rounded=0;exitX=0.5;exitY=1;exitDx=0;exitDy=0;" edge="1" parent="1" source="oqh5uJ67etvfVnNtxnd--42">
          <mxGeometry width="50" height="50" relative="1" as="geometry">
            <mxPoint x="400" y="490" as="sourcePoint" />
            <mxPoint x="740" y="440" as="targetPoint" />
          </mxGeometry>
        </mxCell>
        <mxCell id="oqh5uJ67etvfVnNtxnd--53" value="" style="endArrow=classic;html=1;rounded=0;" edge="1" parent="1">
          <mxGeometry width="50" height="50" relative="1" as="geometry">
            <mxPoint x="740" y="440" as="sourcePoint" />
            <mxPoint x="650" y="440" as="targetPoint" />
          </mxGeometry>
        </mxCell>
        <mxCell id="oqh5uJ67etvfVnNtxnd--58" value="" style="edgeStyle=orthogonalEdgeStyle;rounded=0;orthogonalLoop=1;jettySize=auto;html=1;" edge="1" parent="1" source="oqh5uJ67etvfVnNtxnd--55" target="oqh5uJ67etvfVnNtxnd--57">
          <mxGeometry relative="1" as="geometry" />
        </mxCell>
        <mxCell id="oqh5uJ67etvfVnNtxnd--65" value="" style="edgeStyle=orthogonalEdgeStyle;rounded=0;orthogonalLoop=1;jettySize=auto;html=1;" edge="1" parent="1" source="oqh5uJ67etvfVnNtxnd--55" target="oqh5uJ67etvfVnNtxnd--64">
          <mxGeometry relative="1" as="geometry" />
        </mxCell>
        <mxCell id="oqh5uJ67etvfVnNtxnd--55" value="&lt;span style=&quot;&quot;&gt;is trx successful ?&lt;/span&gt;" style="rhombus;whiteSpace=wrap;html=1;" vertex="1" parent="1">
          <mxGeometry x="520" y="500" width="140" height="80" as="geometry" />
        </mxCell>
        <mxCell id="oqh5uJ67etvfVnNtxnd--57" value="&lt;span style=&quot;&quot;&gt;Do you want to retry?&lt;/span&gt;" style="rhombus;whiteSpace=wrap;html=1;" vertex="1" parent="1">
          <mxGeometry x="680" y="500" width="113" height="80" as="geometry" />
        </mxCell>
        <mxCell id="oqh5uJ67etvfVnNtxnd--59" value="" style="endArrow=classic;html=1;rounded=0;exitX=1;exitY=0.5;exitDx=0;exitDy=0;" edge="1" parent="1" source="oqh5uJ67etvfVnNtxnd--57">
          <mxGeometry width="50" height="50" relative="1" as="geometry">
            <mxPoint x="400" y="480" as="sourcePoint" />
            <mxPoint x="810" y="540" as="targetPoint" />
          </mxGeometry>
        </mxCell>
        <mxCell id="oqh5uJ67etvfVnNtxnd--60" value="No" style="text;html=1;align=center;verticalAlign=middle;resizable=0;points=[];autosize=1;strokeColor=none;fillColor=none;" vertex="1" parent="1">
          <mxGeometry x="645" y="520" width="30" height="20" as="geometry" />
        </mxCell>
        <mxCell id="oqh5uJ67etvfVnNtxnd--61" value="Yes" style="text;html=1;align=center;verticalAlign=middle;resizable=0;points=[];autosize=1;strokeColor=none;fillColor=none;" vertex="1" parent="1">
          <mxGeometry x="760" y="510" width="40" height="20" as="geometry" />
        </mxCell>
        <mxCell id="oqh5uJ67etvfVnNtxnd--62" value="" style="endArrow=classic;html=1;rounded=0;" edge="1" parent="1">
          <mxGeometry width="50" height="50" relative="1" as="geometry">
            <mxPoint x="810" y="540" as="sourcePoint" />
            <mxPoint x="810" y="240" as="targetPoint" />
          </mxGeometry>
        </mxCell>
        <mxCell id="oqh5uJ67etvfVnNtxnd--63" value="" style="endArrow=classic;html=1;rounded=0;" edge="1" parent="1">
          <mxGeometry width="50" height="50" relative="1" as="geometry">
            <mxPoint x="810" y="240" as="sourcePoint" />
            <mxPoint x="740" y="240" as="targetPoint" />
          </mxGeometry>
        </mxCell>
        <mxCell id="oqh5uJ67etvfVnNtxnd--64" value="credit user wallet" style="whiteSpace=wrap;html=1;" vertex="1" parent="1">
          <mxGeometry x="530" y="620" width="120" height="60" as="geometry" />
        </mxCell>
        <mxCell id="oqh5uJ67etvfVnNtxnd--66" value="" style="endArrow=classic;html=1;rounded=0;exitX=0.5;exitY=1;exitDx=0;exitDy=0;entryX=1;entryY=0.5;entryDx=0;entryDy=0;" edge="1" parent="1" source="oqh5uJ67etvfVnNtxnd--64" target="oqh5uJ67etvfVnNtxnd--31">
          <mxGeometry width="50" height="50" relative="1" as="geometry">
            <mxPoint x="400" y="480" as="sourcePoint" />
            <mxPoint x="450" y="430" as="targetPoint" />
            <Array as="points">
              <mxPoint x="590" y="800" />
            </Array>
          </mxGeometry>
        </mxCell>
        <mxCell id="oqh5uJ67etvfVnNtxnd--67" value="Yes" style="text;html=1;align=center;verticalAlign=middle;resizable=0;points=[];autosize=1;strokeColor=none;fillColor=none;" vertex="1" parent="1">
          <mxGeometry x="590" y="590" width="40" height="20" as="geometry" />
        </mxCell>
        <mxCell id="oqh5uJ67etvfVnNtxnd--68" value="" style="endArrow=classic;html=1;rounded=0;exitX=0.5;exitY=1;exitDx=0;exitDy=0;" edge="1" parent="1" source="oqh5uJ67etvfVnNtxnd--57">
          <mxGeometry width="50" height="50" relative="1" as="geometry">
            <mxPoint x="400" y="480" as="sourcePoint" />
            <mxPoint x="590" y="800" as="targetPoint" />
            <Array as="points">
              <mxPoint x="737" y="800" />
            </Array>
          </mxGeometry>
        </mxCell>
        <mxCell id="oqh5uJ67etvfVnNtxnd--69" value="No" style="text;html=1;align=center;verticalAlign=middle;resizable=0;points=[];autosize=1;strokeColor=none;fillColor=none;" vertex="1" parent="1">
          <mxGeometry x="735" y="610" width="30" height="20" as="geometry" />
        </mxCell>
      </root>
    </mxGraphModel>
  </diagram>
</mxfile>
